<svg id = "client4" fill="none" height="60" viewBox="0 0 106 60" width="106" xmlns="http://www.w3.org/2000/svg"><g fill="#2196f3"><path d="m24.1462 21.1029h-.0029c-2.398 0-4.342 1.7276-4.342 3.8587v.0025c0 2.1311 1.944 3.8587 4.342 3.8587h.0029c2.398 0 4.342-1.7276 4.342-3.8587v-.0025c0-2.1311-1.944-3.8587-4.342-3.8587z"/><path d="m56.195 19.8693c-.0068-2.9599-1.3327-5.797-3.6876-7.8903-2.3549-2.09326-5.547-3.27227-8.8777-3.27899-3.3317.00538-6.5252 1.18379-8.8813 3.27719-2.3562 2.0934-3.6829 4.9313-3.6897 7.8921v16.3229s25.1335-2.4877 25.1363-16.3203z"/><path d="m11 41.5495c.006 2.0596.9291 4.0334 2.5676 5.49s3.8591 2.2776 6.1766 2.2836c2.317-.006 4.5372-.8267 6.1755-2.2827 1.6384-1.4561 2.5619-3.4292 2.5687-5.4883v-11.3577s-17.4884 1.7323-17.4884 11.3551zm8.7442 2.035c-.4529 0-.8956-.1193-1.2722-.343-.3765-.2236-.67-.5414-.8433-.9132-.1733-.3719-.2187-.781-.1303-1.1758.0883-.3947.3064-.7573.6266-1.0419.3203-.2846.7283-.4784 1.1725-.5569.4441-.0786.9045-.0383 1.323.1158.4184.154.776.4148 1.0276.7495.2516.3346.3859.7281.3859 1.1305.0011.2679-.0573.5333-.1718.7811-.1146.2478-.2831.473-.4958.6628-.2128.1898-.4656.3404-.744.4431-.2783.1027-.5768.1556-.8782.1556z"/><path d="m37.4177 42.4638h-1.6875v1.7432h-.8789v-4.2657h2.7773v.712h-1.8984v1.1015h1.6875zm4.2246-.293c0 .42-.0742.7881-.2227 1.1045-.1484.3164-.3613.5606-.6387.7325-.2753.1718-.5918.2578-.9492.2578-.3535 0-.6689-.085-.9463-.2549-.2773-.1699-.4922-.4121-.6445-.7266-.1523-.3164-.2295-.6797-.2314-1.0898v-.211c0-.4199.0752-.789.2255-1.1074.1524-.3203.3663-.5654.6416-.7353.2774-.1719.5938-.2578.9493-.2578.3554 0 .6709.0859.9463.2578.2773.1699.4912.415.6416.7353.1523.3184.2285.6865.2285 1.1045zm-.8907-.1933c0-.4473-.08-.7871-.2402-1.0196-.1601-.2324-.3887-.3486-.6855-.3486-.295 0-.5225.1152-.6827.3457-.1601.2285-.2412.5645-.2431 1.0078v.208c0 .4356.0801.7735.2402 1.0137.1602.2402.3906.3604.6914.3604.2949 0 .5215-.1153.6797-.3457.1582-.2325.2383-.5704.2402-1.0137zm3.7413 1.1103c0-.166-.0586-.2929-.1758-.3808-.1172-.0899-.3281-.1836-.6328-.2813-.3047-.0996-.5459-.1972-.7237-.2929-.4843-.2618-.7265-.6143-.7265-1.0577 0-.2304.0644-.4355.1933-.6152.1309-.1816.3174-.3232.5596-.4248.2441-.1016.5176-.1523.8203-.1523.3047 0 .5762.0556.8145.1669.2382.1094.4228.2647.5537.4659.1328.2011.1992.4297.1992.6855h-.8789c0-.1953-.0615-.3467-.1846-.4541-.123-.1094-.2959-.1641-.5185-.1641-.2149 0-.3819.0459-.501.1377-.1192.0899-.1787.209-.1787.3575 0 .1386.0693.2548.208.3486.1406.0937.3467.1816.6181.2637.5.1504.8643.3369 1.0928.5595.2285.2227.3428.5.3428.8321 0 .3691-.1397.6591-.419.8701-.2792.209-.6552.3135-1.1279.3135-.3281 0-.6269-.0596-.8965-.1787-.2695-.1211-.4756-.2862-.6181-.4952-.1407-.2089-.211-.4511-.211-.7265h.8819c0 .4707.2812.706.8437.706.209 0 .3721-.042.4893-.1259.1172-.086.1758-.2051.1758-.3575zm4.6904-2.4345h-1.3067v3.5537h-.8789v-3.5537h-1.289v-.712h3.4746zm3.0703 1.705h-1.6875v1.1426h1.9805v.7061h-2.8594v-4.2657h2.8535v.712h-1.9746v1.0166h1.6875zm2.3877.2871h-.7002v1.5616h-.8789v-4.2657h1.585c.5039 0 .8925.1123 1.166.337.2734.2246.4101.542.4101.9521 0 .291-.0634.5342-.1904.7295-.125.1934-.3154.3477-.5713.4629l.9229 1.7432v.041h-.9434zm-.7002-.7119h.709c.2207 0 .3916-.0556.5127-.167.1211-.1132.1816-.2685.1816-.4658 0-.2012-.0576-.3594-.1728-.4746-.1133-.1152-.2881-.1728-.5244-.1728h-.7061zm5.3262.7705v1.503h-.8789v-4.2657h1.664c.3203 0 .6016.0586.8438.1758.2441.1172.4316.2842.5625.501.1308.2148.1963.46.1963.7354 0 .4179-.1436.748-.4307.9902-.2852.2402-.6807.3603-1.1865.3603zm0-.7119h.7851c.2325 0 .4092-.0547.5303-.164.123-.1094.1846-.2657.1846-.4688 0-.209-.0616-.3779-.1846-.5068s-.293-.1953-.5098-.1992h-.8056zm5.5605.3662h-1.6875v1.1426h1.9805v.7061h-2.8594v-4.2657h2.8535v.712h-1.9746v1.0166h1.6875zm4.0781-1.705h-1.3066v3.5537h-.8789v-3.5537h-1.2891v-.712h3.4746zm3.0704 1.705h-1.6875v1.1426h1.9804v.7061h-2.8593v-4.2657h2.8535v.712h-1.9746v1.0166h1.6875zm2.3877.2871h-.7002v1.5616h-.8789v-4.2657h1.5849c.5039 0 .8926.1123 1.166.337.2735.2246.4102.542.4102.9521 0 .291-.0635.5342-.1904.7295-.125.1934-.3155.3477-.5713.4629l.9228 1.7432v.041h-.9433zm-.7002-.7119h.7089c.2207 0 .3916-.0556.5127-.167.1211-.1132.1817-.2685.1817-.4658 0-.2012-.0576-.3594-.1729-.4746-.1133-.1152-.2881-.1728-.5244-.1728h-.706zm5.165 1.1543c0-.166-.0586-.2929-.1758-.3808-.1172-.0899-.3281-.1836-.6328-.2813-.3047-.0996-.5459-.1972-.7236-.2929-.4844-.2618-.7266-.6143-.7266-1.0577 0-.2304.0645-.4355.1934-.6152.1308-.1816.3173-.3232.5595-.4248.2442-.1016.5176-.1523.8203-.1523.3047 0 .5762.0556.8145.1669.2383.1094.4229.2647.5537.4659.1328.2011.1992.4297.1992.6855h-.8789c0-.1953-.0615-.3467-.1845-.4541-.1231-.1094-.2959-.1641-.5186-.1641-.2148 0-.3818.0459-.501.1377-.1191.0899-.1787.209-.1787.3575 0 .1386.0693.2548.208.3486.1406.0937.3467.1816.6182.2637.5.1504.8642.3369 1.0928.5595.2285.2227.3427.5.3427.8321 0 .3691-.1396.6591-.4189.8701-.2793.209-.6553.3135-1.1279.3135-.3282 0-.627-.0596-.8965-.1787-.2696-.1211-.4756-.2862-.6182-.4952-.1406-.2089-.2109-.4511-.2109-.7265h.8818c0 .4707.2813.706.8438.706.2089 0 .372-.042.4892-.1259.1172-.086.1758-.2051.1758-.3575z"/></g></svg>