<svg id = "client5" fill="none" height="60" viewBox="0 0 106 60" width="106" xmlns="http://www.w3.org/2000/svg"><g fill="#afb1b8"><path d="m26.7569 44.7352c.2437.2761.3735.622.3667.9769.0124.2316-.0322.4627-.1306.6763-.0983.2137-.2479.4043-.4376.5578-.4734.3273-1.0598.4874-1.6517.4507h-2.9037v-6.1915h2.8442c.5615-.0342 1.1184.1112 1.5758.4114.1836.1407.3291.3186.4248.5197.0958.201.1392.4197.1268.6387.0167.3415-.1004.6773-.3303.9467-.2207.246-.5257.4166-.8655.484.3852.0643.7329.2519.9811.5293zm-3.4058-.9346h1.2156c.2763.0187.5507-.0543.773-.2057.0913-.0758.1623-.1697.2076-.2746.0452-.1049.0635-.2179.0534-.3303.0086-.1121-.0101-.2244-.0546-.329-.0446-.1046-.1139-.1989-.2031-.276-.2289-.1556-.5118-.2298-.7961-.2087h-1.1958zm2.1076 2.3743c.0975-.0775.1742-.1746.2241-.2838.0498-.1091.0715-.2273.0633-.3453.0074-.1194-.0152-.2388-.0662-.349-.051-.1101-.1289-.208-.2278-.2862-.2379-.1614-.5304-.2407-.8259-.2238h-1.2751v1.7029h1.2916c.2907.0153.5785-.0604.816-.2148z"/><path d="m32.5709 47.3969-1.5823-2.4197h-.5946v2.4197h-1.361v-6.1915h2.5766c.6495-.0415 1.2916.1469 1.7938.5263.3601.336.5774.7788.6125 1.2486.0351.4697-.1141.9354-.4209 1.3133-.3179.3335-.7522.5558-1.2289.6291l1.6847 2.4742zm-2.1769-3.2636h1.1132c.773 0 1.1595-.3126 1.1595-.9377.0079-.1276-.0133-.2554-.0622-.3751-.0489-.1198-.1245-.2289-.2219-.3205-.2443-.186-.5589-.2763-.8754-.2511h-1.1265z"/><path d="m40.0102 46.1506h-2.7121l-.479 1.2461h-1.4271l2.4908-6.1219h1.5427l2.4808 6.1219h-1.427zm-.3634-.9377-.991-2.6133-.991 2.6133z"/><path d="m49.3224 47.3968h-1.3511l-3.0292-4.2103v4.2103h-1.3478v-6.1915h1.3478l3.0292 4.2345v-4.2345h1.3511z"/><path d="m57.0326 45.9148c-.2794.4675-.705.8477-1.2223 1.0919-.5881.272-1.2408.4061-1.8994.3902h-2.4049v-6.1915h2.4049c.6575-.0157 1.3093.1151 1.8994.3811.5172.2387.9433.6151 1.2223 1.0798.2781.5036.423 1.06.423 1.6243s-.1449 1.1206-.423 1.6242zm-1.546-.1482c.3856-.4113.5976-.9355.5976-1.4775 0-.5421-.212-1.0663-.5976-1.4776-.4661-.3725-1.0739-.5617-1.6914-.5263h-.9381v4.0077h.9381c.6175.0354 1.2253-.1537 1.6914-.5263z"/><path d="m40.8558 6.76666s17.4387 6.02814 17.0687 14.75124v14.7543s-17.4254-6.0312-17.0621-14.7543z"/><path d="m73.4603 32.8179c3.2935-2.0752 7.103-3.3606 11.0796-3.7384v-4.6187c-4.582 1.617-8.469 4.5489-11.0796 8.3571z"/><path d="m71.4816 34.2094c2.6957-4.9699 7.3689-8.8049 13.0584-10.7164v-13.3084s-24.835 8.587-24.3097 21.0092v21.0062s1.1066-.3841 2.8475-1.104c0-.6714 0-1.349.0793-2.0295.514-5.767 3.5083-11.1111 8.3245-14.8571z"/><path d="m69.1197 42.013c.1305-1.4569.4216-2.8979.8688-4.3011-2.9989 3.2351-4.8151 7.2494-5.1929 11.4786-.0364.3992-.0562.7985-.0661 1.2098 1.4105-.62 3.0523-1.3943 4.7767-2.3047-.44-2.0009-.5702-4.0485-.3865-6.0826z"/><path d="m70.1075 42.0886c-.1654 1.8403-.0621 3.6926.3072 5.5079 6.7852-3.7173 14.4094-9.4611 14.1154-16.4027v-.6049c-4.8477.4966-9.3833 2.437-12.9097 5.523-.8256 1.9124-1.3355 3.9267-1.5129 5.9767z"/></g></svg>