<svg id = "client3" fill="none" height="60" viewBox="0 0 106 60" width="106" xmlns="http://www.w3.org/2000/svg"><g fill="#afb1b8"><path d="m36.4062 49.1014c.0159.0004.0316.0035.0461.0092s.0276.0139.0384.024l.2182.2085c-.1694.1687-.3786.3037-.6135.3957-.2751.1003-.5715.1487-.8697.1421-.2803.005-.5587-.0401-.818-.1327-.2339-.085-.444-.2126-.6162-.3743-.1757-.1677-.311-.3643-.398-.5781-.0953-.2384-.1424-.4893-.1391-.7416-.0039-.2539.047-.5062.15-.7439.0952-.2152.2389-.4117.4226-.5781.1862-.1631.4089-.2914.6543-.3767.2686-.0905.5545-.1355.8425-.1327.2675-.0056.5336.0354.7825.1208.2159.0814.4142.1944.5862.3341l-.1827.2227c-.0126.0157-.0283.0293-.0463.0403-.0216.0128-.0476.0187-.0736.0166-.0283-.0017-.0556-.0099-.0791-.0237l-.0982-.0593-.1363-.0758c-.0588-.0281-.1199-.0527-.1827-.0734-.0808-.0252-.1638-.045-.2481-.0592-.107-.0172-.2156-.0251-.3244-.0237-.2074-.0023-.4132.0315-.6053.0995-.1791.0629-.3409.1582-.4744.2795-.136.1291-.2407.2806-.3081.4455-.0768.1886-.1146.3875-.1118.5875-.0033.2032.0346.4053.1118.5971.0665.1634.1694.314.3026.443.1249.1203.2797.2143.4526.2749.178.0641.369.0963.5617.0947.1113.0015.2225-.0048.3326-.0189.1798-.0191.3523-.0734.5044-.1588.0763-.0437.1484-.0928.2154-.1469.028-.0232.0649-.0367.1036-.0379z"/><path d="m42.7043 48.0538c.0034.2514-.0465.5011-.1472.7368-.0889.2137-.2288.4087-.4107.572-.1819.1634-.4015.2914-.6444.3756-.5338.1769-1.1239.1769-1.6577 0-.2414-.0855-.4596-.2138-.6407-.3767-.1818-.1663-.3228-.3629-.4145-.578-.1964-.4772-.1964-.9988 0-1.4759.0931-.2153.2339-.4125.4145-.5805.1826-.1577.4007-.2811.6407-.3624.5331-.1801 1.1245-.1801 1.6577 0 .2422.0855.4613.2137.6434.3767.1795.1646.3194.3587.4117.5709.101.2372.1509.4886.1472.7415zm-.5725 0c.0043-.2011-.0308-.4013-.1036-.5923-.0611-.1635-.1605-.3143-.2918-.443-.1278-.1217-.2852-.2172-.4607-.2795-.3879-.1295-.8173-.1295-1.2051 0-.1756.0623-.333.1578-.4608.2795-.1331.1279-.2335.2789-.2944.443-.1388.3857-.1388.7989 0 1.1846.0615.1639.1618.3148.2944.443.128.121.2854.2157.4608.2772.3885.1262.8165.1262 1.2051 0 .1753-.0615.3327-.1562.4607-.2772.1308-.129.23-.2797.2918-.443.0731-.1909.1082-.3912.1036-.5923z"/><path d="m47.0013 48.6748.0572.1326c.0218-.0474.0409-.09.0627-.1326.0208-.0446.0445-.0881.0709-.1303l1.3932-2.2006c.0273-.0379.0518-.0616.0791-.0687.0371-.0098.0758-.0138.1145-.0118h.4117v3.5792h-.488v-2.6317c0-.0332 0-.0711 0-.1114-.0027-.041-.0027-.0821 0-.1231l-1.4014 2.2313c-.0178.0335-.0463.0617-.0821.0815-.0358.0197-.0773.0301-.1197.0299h-.0791c-.0424.0005-.0841-.0098-.12-.0295-.0358-.0198-.0642-.0483-.0817-.0819l-1.4423-2.2455v.1279.1137 2.6317h-.4717v-3.5721h.4117c.0387-.002.0774.002.1145.0118.0338.0146.0608.0388.0764.0687l1.4232 2.203c.0279.0407.0517.0835.0709.1279z"/><path d="m52.2443 48.4969v1.3407h-.5453v-3.5744h1.216c.2295-.0038.4584.0226.6789.0782.1765.0435.3401.1194.4798.2227.1211.0968.2145.2168.2727.3505.0643.1458.0958.3011.0927.4572.0024.1567-.0319.3123-.1009.4572-.0656.1371-.1663.2594-.2945.3576-.1399.1076-.3043.1883-.4825.2369-.2123.0589-.4343.0869-.6571.0829zm0-.3837h.6598c.1433.0016.286-.0168.4226-.0545.1127-.0329.2165-.0853.3053-.1539.082-.0656.1454-.1466.1854-.2369.0447-.0955.0669-.1978.0655-.3008.0063-.0994-.0123-.1988-.0547-.2912-.0424-.0925-.1075-.1758-.1907-.2442-.2083-.1413-.4699-.2097-.7334-.1918h-.6598z"/><path d="m59.573 49.8424h-.4308c-.0432.0015-.0856-.0102-.1199-.0331-.031-.0223-.0553-.0508-.0709-.0829l-.3708-.8647h-1.8622l-.3844.8647c-.0142.0316-.0377.0594-.0682.0805-.0346.0243-.0782.0369-.1227.0355h-.4308l1.6359-3.5795h.5671zm-2.6992-1.329h1.5377l-.6489-1.4569c-.0496-.1096-.0905-.222-.1226-.3364l-.0628.1871c-.019.0569-.0409.109-.0599.1517z"/><path d="m61.9287 46.2795c.0326.0156.0606.0375.0818.064l2.3857 2.6983c0-.0427 0-.0853 0-.1256s0-.0805 0-.1184v-2.5348h.488v3.5795h-.2726c-.0388.001-.0772-.0063-.1118-.0213-.0337-.0171-.0633-.0396-.0873-.0664l-2.3829-2.6959c.0026.0411.0026.0822 0 .1232v.109 2.5514h-.488v-3.5795h.289c.0337-.0009.0672.0048.0981.0165z"/><path d="m68.903 48.4189v1.4213h-.5453v-1.4213l-1.5077-2.1558h.488c.0421-.0022.0836.0088.1173.0308.0296.023.0545.0502.0736.0806l.9433 1.3905c.0382.0593.0709.1137.0982.1659.0273.0521.0491.1018.0682.1516l.0708-.154c.0265-.0563.0575-.1109.0927-.1635l.9298-1.4c.0195-.028.0434-.0535.0709-.0758.0323-.0246.0743-.0373.1172-.0356h.4935z"/><path d="m46.7313 40.2561c.2372.0261.4772.0474.7198.0664 3.6789-1.4299 6.791-3.7702 8.9475-6.7283 2.1565-2.9582 3.2616-6.403 3.1772-9.9038l-4.0543-3.5226c.8243 3.7273.4387 7.5804-1.1137 11.1281-1.5524 3.5478-4.2103 6.6502-7.6765 8.9602z"/><path d="m45.2836 40.0923.1091.0189c3.7039-2.3018 6.5278-5.5161 8.1065-9.2273s1.8396-7.7486.7491-11.59l-5.7747-5.0172c2.3357 4.1241 3.2759 8.7395 2.7111 13.3095-.5647 4.57-2.611 8.9068-5.9011 12.5061z"/><path d="m64.8679 27.8266c-.9811 3.8466-3.3639 7.3157-6.7944 9.8923-1.0019.7567-2.0826 1.4308-3.2282 2.0136 2.7935-.7134 5.3611-1.9746 7.5049-3.6865 2.1437-1.7118 3.8064-3.8285 4.8597-6.1869z"/><path d="m63.949 27.2602-3.3344-2.8972c-.0638 3.3031-1.1446 6.5311-3.1301 9.3485s-4.8032 5.1213-8.1603 6.6723h.0164c.7481-.0002 1.4956-.039 2.2384-.116 3.1374-1.1126 5.909-2.8828 8.0674-5.1525 2.1585-2.2697 3.6366-4.9683 4.3026-7.8551z"/><path d="m45.7662 12.161-3.9779-3.46099c-3.5561 1.19396-6.6146 3.29289-8.775 6.02209s-3.3222 5.9615-3.3333 9.2739c.0133 3.66 1.4312 7.2117 4.0292 10.0929 2.598 2.8811 6.2278 4.9271 10.3148 5.8142 3.6484-3.8621 5.7845-8.6343 6.0978-13.6233s-1.2124-9.9348-4.3556-14.1188z"/><path d="m73.14 26.7274c-.0144-4.3425-2.0062-8.5036-5.5404-11.5742-3.5341-3.0706-8.3233-4.8012-13.3213-4.8137-2.3096-.002-4.5995.3683-6.7535 1.0921l24.3556 21.1611c.8339-1.8706 1.261-3.8593 1.2596-5.8653z"/></g></svg>